<svg width="21" height="47" viewBox="0 0 21 47" fill="none" xmlns="http://www.w3.org/2000/svg">
<path d="M15.6423 16.8161C15.6423 16.8161 14.1271 14.4334 15.1076 11.1264C16.0864 7.81737 18.3754 6.56134 18.3754 6.56134C18.3754 6.56134 20.0854 9.39887 19.1288 12.6245C18.1773 15.8501 15.6423 16.8161 15.6423 16.8161Z" fill="#DAD9D9"/>
<path d="M11.442 18.5083C11.442 18.5083 8.79598 18.2475 7.27908 15.3599C5.76389 12.4723 6.92207 9.24249 6.92207 9.24249C6.92207 9.24249 9.37848 9.85173 10.9364 12.8145C12.4909 15.7793 11.442 18.5083 11.442 18.5083Z" fill="#DAD9D9"/>
<path d="M11.1738 22.3243C12.3986 25.5103 11.0679 28.0515 11.0679 28.0515C11.0679 28.0515 8.46971 27.3713 7.27567 24.2688C6.08675 21.1622 7.57802 18.1452 7.57802 18.1452C7.57802 18.1452 9.94903 19.1404 11.1738 22.3243Z" fill="#DAD9D9"/>
<path d="M5.19356 24.8927C5.19356 24.8927 7.47573 26.155 8.45112 29.4703C9.4248 32.7836 7.90449 35.158 7.90449 35.158C7.90449 35.158 5.37463 34.1815 4.42486 30.9538C3.4751 27.7261 5.19356 24.8927 5.19356 24.8927Z" fill="#DAD9D9"/>
<path d="M3.2869 42.3165C3.2869 42.3165 1.09184 40.493 0.943227 37.0671C0.79632 33.6412 3.11267 31.5318 3.11267 31.5318C3.11267 31.5318 4.99854 33.5452 5.15228 37.0608C5.30431 40.5764 3.2869 42.3165 3.2869 42.3165Z" fill="#DAD9D9"/>
<path d="M12.2654 10.44C12.2654 10.44 9.92691 9.48442 9.24021 6.06896C8.5518 2.6535 9.8842 0.0559082 9.8842 0.0559082C9.8842 0.0559082 12.5968 1.25768 13.2664 4.59178C13.9361 7.91961 12.2654 10.44 12.2654 10.44Z" fill="#DAD9D9"/>
<path d="M15.6443 24.0791C15.6443 24.0791 14.7748 21.2561 16.5069 18.4498C18.2442 15.6414 20.733 15.2638 20.733 15.2638C20.733 15.2638 21.6845 18.5938 19.9917 21.3312C18.2988 24.0708 15.6443 24.0791 15.6443 24.0791Z" fill="#DAD9D9"/>
<path d="M13.7038 31.5276C13.7038 31.5276 13.3689 28.5398 15.5708 26.2698C17.7744 24.004 20.2684 24.3127 20.2684 24.3127C20.2684 24.3127 20.5896 27.82 18.4423 30.0275C16.2951 32.2349 13.7038 31.5276 13.7038 31.5276Z" fill="#DAD9D9"/>
<path d="M10.7468 37.6868C10.7468 37.6868 11.167 34.7137 13.8284 33.3679C16.4932 32.0201 18.7908 33.2365 18.7908 33.2365C18.7908 33.2365 18.2271 36.6958 15.634 38.0081C13.0392 39.3226 10.7468 37.6868 10.7468 37.6868Z" fill="#DAD9D9"/>
<path d="M9.45522 40.2448C12.2294 39.2997 14.3971 40.8394 14.3971 40.8394C14.3971 40.8394 13.502 44.1881 10.7979 45.1186C8.09377 46.0387 5.979 44.0796 5.979 44.0796C5.979 44.0796 6.68279 41.192 9.45522 40.2448Z" fill="#DAD9D9"/>
<path d="M11.9784 12.4765L13.2151 11.7358C13.2801 11.9006 19.6244 28.3605 1.79574 46.9715L0.905762 45.6967C17.8751 27.9766 12.2278 13.0982 11.9784 12.4765Z" fill="#DAD9D9"/>
</svg>
