<svg width="21" height="48" viewBox="0 0 21 48" fill="none" xmlns="http://www.w3.org/2000/svg">
<path d="M5.35643 16.8473C5.35643 16.8473 6.86992 14.4646 5.8911 11.1555C4.90887 7.84855 2.62155 6.59253 2.62155 6.59253C2.62155 6.59253 0.9099 9.43215 1.86651 12.6557C2.82141 15.8813 5.35643 16.8473 5.35643 16.8473Z" fill="#DAD9D9"/>
<path d="M9.55695 18.5394C9.55695 18.5394 12.203 18.2807 13.7182 15.391C15.2334 12.5033 14.0752 9.27356 14.0752 9.27356C14.0752 9.27356 11.6188 9.88279 10.0626 12.8476C8.50811 15.8103 9.55695 18.5394 9.55695 18.5394Z" fill="#DAD9D9"/>
<path d="M9.82483 22.3576C8.60004 25.5436 9.93074 28.0849 9.93074 28.0849C9.93074 28.0849 12.5289 27.4047 13.7213 24.3022C14.9119 21.1955 13.4189 18.1785 13.4189 18.1785C13.4189 18.1785 11.0496 19.1716 9.82483 22.3576Z" fill="#DAD9D9"/>
<path d="M15.8054 24.9241C15.8054 24.9241 13.5215 26.1884 12.5478 29.4975C11.5741 32.8128 13.0927 35.1871 13.0927 35.1871C13.0927 35.1871 15.6243 34.2128 16.574 30.9851C17.5221 27.7574 15.8054 24.9241 15.8054 24.9241Z" fill="#DAD9D9"/>
<path d="M17.7086 42.3498C17.7086 42.3498 19.9053 40.5242 20.054 37.1003C20.2009 33.6744 17.8862 31.5671 17.8862 31.5671C17.8862 31.5671 15.997 33.5805 15.8449 37.0941C15.6946 40.6055 17.7086 42.3498 17.7086 42.3498Z" fill="#DAD9D9"/>
<path d="M8.73017 10.4712C8.73017 10.4712 11.0721 9.51563 11.7588 6.10014C12.4472 2.68464 11.1165 0.0891113 11.1165 0.0891113C11.1165 0.0891113 8.40391 1.2909 7.73259 4.62294C7.06297 7.95289 8.73017 10.4712 8.73017 10.4712Z" fill="#DAD9D9"/>
<path d="M5.35456 24.1102C5.35456 24.1102 6.22404 21.2873 4.4902 18.481C2.75296 15.6727 0.265803 15.295 0.265803 15.295C0.265803 15.295 -0.683961 18.625 1.00717 21.3624C2.69829 24.1019 5.35456 24.1102 5.35456 24.1102Z" fill="#DAD9D9"/>
<path d="M7.29536 31.5588C7.29536 31.5588 7.62846 28.5711 5.42828 26.3052C3.22467 24.0373 0.73067 24.3461 0.73067 24.3461C0.73067 24.3461 0.409524 27.8512 2.55505 30.0608C4.70399 32.2682 7.29536 31.5588 7.29536 31.5588Z" fill="#DAD9D9"/>
<path d="M10.2505 37.7181C10.2505 37.7181 9.83204 34.7469 7.17063 33.4032C4.50752 32.0553 2.20825 33.2718 2.20825 33.2718C2.20825 33.2718 2.77196 36.7311 5.36504 38.0456C7.95812 39.3539 10.2505 37.7181 10.2505 37.7181Z" fill="#DAD9D9"/>
<path d="M11.5415 40.276C8.76734 39.3288 6.60132 40.8706 6.60132 40.8706C6.60132 40.8706 7.49813 44.2215 10.2005 45.1458C12.9063 46.0701 15.0211 44.1109 15.0211 44.1109C15.0211 44.1109 14.3156 41.2212 11.5415 40.276Z" fill="#DAD9D9"/>
<path d="M9.01875 12.5075L7.78542 11.7668C7.7205 11.9317 1.37617 28.3916 19.2032 47.0046L20.0948 45.7298C3.12197 28.0056 8.76935 13.1314 9.01875 12.5075Z" fill="#DAD9D9"/>
</svg>
