<svg width="105" height="60" viewBox="0 0 105 60" fill="none" xmlns="http://www.w3.org/2000/svg">
<path d="M35.3197 34.3328L47.4123 1.16426C47.6712 0.465705 48.3444 0 49.0953 0H54.2741C55.0251 0 55.6983 0.465705 55.9572 1.16426L62.845 20.077H65.5121C66.0559 20.077 66.5479 20.4134 66.7291 20.9308L67.7908 23.8544C67.8944 24.139 67.6873 24.4236 67.3765 24.4236H64.4246L65.072 26.1571H67.739C68.2828 26.1571 68.7748 26.4934 68.9561 27.0109L70.0177 29.9344C70.1212 30.219 69.9141 30.5036 69.6034 30.5036H66.6515L68.0238 34.281C68.1274 34.5656 67.9203 34.8502 67.6095 34.8502H62.2236C61.6799 34.8502 61.1879 34.5138 61.0066 33.9964L59.7378 30.4778H43.4505C43.1398 30.4778 42.9326 30.1673 43.0362 29.9085L44.0978 26.985C44.279 26.4676 44.771 26.1312 45.3148 26.1312H58.1323L57.485 24.3977H45.6514C45.3407 24.3977 45.1336 24.0873 45.2372 23.8285L46.2988 20.9049C46.48 20.3875 46.972 20.0512 47.5158 20.0512H55.8796L50.7784 6.02828C50.6489 5.6402 50.1052 5.6402 49.9498 6.02828L39.7735 34.0482C39.5922 34.5656 39.1002 34.9019 38.5565 34.9019H35.734C35.4233 34.9019 35.2162 34.5915 35.3197 34.3328Z" fill="url(#paint0_linear)"/>
<path d="M7.66463 50.0374V49.8822C7.69052 49.8822 7.7682 49.8822 7.89768 49.8563C8.02715 49.8304 8.15662 49.8046 8.28609 49.7528C8.41556 49.701 8.54503 49.6235 8.64862 49.52C8.75214 49.4165 8.80397 49.2871 8.80397 49.1578C8.80397 49.0542 8.77809 48.899 8.72626 48.6921C8.6745 48.4851 8.57091 48.2005 8.46732 47.89C8.36373 47.5796 8.23426 47.2173 8.10479 46.8292C7.97532 46.4411 7.81997 46.0272 7.66463 45.6133H3.36622C3.21085 46.0272 3.05549 46.4153 2.90012 46.7775C2.74476 47.1397 2.5894 47.5278 2.45993 47.89C2.22689 48.4592 2.12331 48.8732 2.12331 49.106C2.12331 49.2354 2.1751 49.3647 2.25278 49.4423C2.33046 49.5458 2.45993 49.5976 2.5894 49.6752C2.71887 49.7269 2.87423 49.7787 3.02959 49.8046C3.18496 49.8304 3.34032 49.8563 3.46979 49.8822V50.0374H0V49.8563C0.284834 49.8304 0.51788 49.7528 0.725032 49.6235C0.932185 49.4941 1.03576 49.4165 1.06166 49.3906C1.13934 49.313 1.26881 49.1319 1.42417 48.8473C1.60543 48.5627 1.81258 48.1487 2.04563 47.6054C2.27868 47.0879 2.51172 46.5188 2.79656 45.872C3.08138 45.2252 3.36622 44.5525 3.65105 43.8798C3.93589 43.2071 4.24661 42.5085 4.53145 41.81C4.81628 41.1114 5.10112 40.4646 5.36006 39.8695L5.20469 39.5073C5.38595 39.4297 5.56721 39.3263 5.72257 39.1969C5.87794 39.0675 6.00741 38.964 6.13688 38.8346C6.26635 38.7052 6.34403 38.5759 6.44761 38.4724C6.52529 38.3431 6.60297 38.2655 6.62887 38.1878H6.75834C7.09496 39.0675 7.40568 39.9213 7.71641 40.7233C8.02715 41.5254 8.31197 42.3016 8.57091 43.026C8.85573 43.7763 9.11467 44.4748 9.37361 45.1734C9.63255 45.872 9.89149 46.5446 10.1504 47.2173C10.2799 47.5537 10.3835 47.8383 10.4871 48.0452C10.5907 48.2781 10.6942 48.5109 10.8237 48.7955C10.8496 48.8473 10.9014 48.9249 10.9791 49.0284C11.0567 49.1319 11.1603 49.2354 11.2898 49.3647C11.4193 49.4682 11.5746 49.5717 11.7559 49.6752C11.9371 49.7528 12.1443 49.8046 12.4033 49.8304V50.0116H7.66463V50.0374ZM5.56721 40.2835C5.48953 40.4128 5.41185 40.6457 5.28238 40.9562C5.1529 41.2667 4.99754 41.6289 4.81628 42.0428C4.63502 42.4827 4.42787 42.9484 4.22072 43.4917C3.98767 44.035 3.75463 44.6301 3.49569 45.251H7.50926C7.328 44.7594 7.14675 44.2938 6.93959 43.8021C6.75834 43.3106 6.57708 42.8449 6.39582 42.405C6.21456 41.9652 6.0592 41.5513 5.90383 41.189C5.77436 40.8268 5.67079 40.5164 5.56721 40.2835Z" fill="white"/>
<path d="M27.6294 50.0375V49.8564C28.0956 49.8305 28.484 49.727 28.7947 49.5718C29.1054 49.3907 29.3126 49.2096 29.4161 48.9767C29.4679 48.8474 29.5197 48.6662 29.5715 48.4593C29.5974 48.2523 29.6233 48.0453 29.6491 47.8125C29.6751 47.1139 29.6751 46.4153 29.6751 45.7944C29.6751 45.1476 29.6751 44.4749 29.6751 43.8022V39.2228C29.3126 40.0248 29.0018 40.7493 28.6911 41.422C28.4063 42.0946 28.0956 42.7414 27.8107 43.3624C27.5258 44.0092 27.2151 44.656 26.9303 45.3029C26.6454 45.9755 26.3089 46.6999 25.9463 47.4761C25.8946 47.5796 25.8169 47.7607 25.7133 47.9935C25.6097 48.2264 25.532 48.4593 25.4284 48.6921C25.3249 48.925 25.2472 49.1578 25.1436 49.3648C25.0659 49.5718 25.0142 49.7011 24.9883 49.7529H24.8847C24.548 48.9509 24.2115 48.1747 23.8489 47.3726C23.5123 46.5965 23.1757 45.8203 22.8649 45.0958C22.5542 44.3714 22.2434 43.6987 21.9586 43.0519C21.6738 42.4051 21.4149 41.8618 21.2077 41.3702C20.9747 40.8787 20.7934 40.4647 20.638 40.1283C20.4827 39.792 20.405 39.5592 20.3274 39.4557C20.3274 40.1542 20.3274 40.801 20.3274 41.3443C20.3274 41.8877 20.3274 42.431 20.3014 42.9485C20.3014 43.4918 20.3014 44.0351 20.3014 44.6302C20.3014 45.2252 20.3014 45.8979 20.3014 46.6999C20.3014 47.2174 20.3274 47.6314 20.3532 48.0194C20.3791 48.3816 20.4568 48.6921 20.5863 48.9509C20.7158 49.2096 20.9229 49.3907 21.1818 49.5459C21.4407 49.7011 21.8033 49.8046 22.2694 49.8564V50.0116H18.0486V49.8564C18.4371 49.7788 18.7219 49.6753 18.9808 49.5201C19.2139 49.3648 19.3951 49.1837 19.5505 48.925C19.68 48.6662 19.7835 48.3558 19.8612 47.9677C19.9389 47.5796 19.9648 47.1139 19.9648 46.5706C19.9907 46.1049 19.9907 45.5616 20.0166 44.9407C20.0166 44.3196 20.0425 43.647 20.0425 42.9226C20.0425 42.6121 20.0425 42.3533 20.0425 42.1205C20.0425 41.9136 20.0425 41.7065 20.0425 41.4996C20.0425 41.2926 20.0425 41.0856 20.0425 40.8787C20.0425 40.6716 20.0425 40.4129 20.0166 40.0766C20.0166 39.7661 19.9389 39.5333 19.8353 39.3521C19.7059 39.1711 19.5764 39.0158 19.4211 38.9124C19.2656 38.8088 19.0844 38.7312 18.9032 38.6795C18.7219 38.6278 18.5665 38.6019 18.4371 38.576V38.4466H21.881L25.7391 47.2174C26.2053 46.2084 26.6714 45.1735 27.1374 44.1645C27.5777 43.1554 27.992 42.2499 28.3544 41.422C28.717 40.5941 29.0018 39.9214 29.2348 39.378C29.4679 38.8347 29.5974 38.5243 29.6232 38.4466H33.0672V38.6019C32.6269 38.6019 32.2904 38.7053 32.0573 38.8865C31.8242 39.0676 31.6689 39.2746 31.5912 39.5074C31.5135 39.6885 31.4877 39.9731 31.4617 40.3612C31.4358 40.7493 31.4358 41.1374 31.41 41.4996C31.41 42.017 31.3841 42.5086 31.3841 43.0002C31.3841 43.4918 31.3841 43.9834 31.3841 44.4749C31.3841 45.0441 31.3841 45.6392 31.3841 46.2084C31.3841 46.7776 31.3841 47.3726 31.41 48.0194C31.41 48.2264 31.4358 48.4334 31.4617 48.6403C31.4877 48.8474 31.5394 49.0026 31.5912 49.132C31.5912 49.1578 31.643 49.2096 31.7207 49.2872C31.7984 49.3648 31.902 49.4424 32.0314 49.5459C32.1609 49.6494 32.3162 49.727 32.5234 49.7788C32.7047 49.8564 32.9377 49.8823 33.1967 49.9082V50.0633H27.6294V50.0375Z" fill="white"/>
<path d="M41.3273 50.0374V49.8822C41.3532 49.8822 41.4309 49.8822 41.5604 49.8563C41.6899 49.8304 41.8193 49.8046 41.9488 49.7528C42.0783 49.701 42.2078 49.6235 42.3113 49.52C42.4149 49.4165 42.4667 49.2871 42.4667 49.1578C42.4667 49.0542 42.4408 48.899 42.389 48.6921C42.3372 48.4851 42.2336 48.2005 42.13 47.89C42.0264 47.5796 41.897 47.2173 41.7675 46.8292C41.638 46.4411 41.4827 46.0272 41.3273 45.6133H37.0289C36.8736 46.0272 36.7182 46.4153 36.5628 46.7775C36.4075 47.1397 36.2521 47.5278 36.1227 47.89C35.8896 48.4592 35.786 48.8732 35.786 49.106C35.786 49.2354 35.8378 49.3647 35.9155 49.4423C35.9932 49.5458 36.1227 49.5976 36.2521 49.6752C36.3816 49.7269 36.5369 49.7787 36.6923 49.8046C36.8476 49.8304 37.0031 49.8563 37.1325 49.8822V50.0374H33.6886V49.8563C33.9734 49.8304 34.2065 49.7528 34.4137 49.6235C34.6208 49.4941 34.7244 49.4165 34.7502 49.3906C34.8279 49.313 34.9574 49.1319 35.1128 48.8473C35.294 48.5627 35.5012 48.1487 35.7342 47.6054C35.9673 47.0879 36.2003 46.5188 36.4852 45.872C36.77 45.2252 37.0548 44.5525 37.3396 43.8798C37.6245 43.2071 37.9352 42.5085 38.2201 41.81C38.5049 41.1114 38.7897 40.4646 39.0486 39.8695L38.8933 39.5073C39.0746 39.4297 39.2558 39.3263 39.4112 39.1969C39.5665 39.0675 39.696 38.964 39.8255 38.8346C39.9549 38.7052 40.0326 38.5759 40.1362 38.4724C40.2139 38.3431 40.2657 38.2655 40.3175 38.1878H40.4469C40.7836 39.0675 41.0943 39.9213 41.4051 40.7233C41.7157 41.5254 42.0006 42.3016 42.2595 43.026C42.5443 43.7763 42.8033 44.4748 43.0622 45.1734C43.3211 45.872 43.5801 46.5446 43.839 47.2173C43.9685 47.5537 44.0721 47.8383 44.1757 48.0452C44.2793 48.2781 44.3829 48.5109 44.5123 48.7955C44.5382 48.8473 44.59 48.9249 44.6677 49.0284C44.7453 49.1319 44.8489 49.2354 44.9784 49.3647C45.1079 49.4682 45.2632 49.5717 45.4445 49.6752C45.6257 49.7528 45.8329 49.8046 46.0919 49.8304V50.0116H41.3273V50.0374ZM39.2041 40.2835C39.1263 40.4128 39.0486 40.6457 38.9192 40.9562C38.7897 41.2667 38.6343 41.6289 38.4531 42.0428C38.2718 42.4827 38.0647 42.9484 37.8575 43.4917C37.6245 44.035 37.3915 44.6301 37.1325 45.251H41.1461C40.9648 44.7594 40.7836 44.2938 40.5764 43.8021C40.3952 43.3106 40.2139 42.8449 40.0326 42.405C39.8514 41.9652 39.696 41.5513 39.5406 41.189C39.4112 40.8268 39.3076 40.5164 39.2041 40.2835Z" fill="white"/>
<path d="M55.5428 50.0375C55.4392 49.934 55.3875 49.8564 55.3357 49.8305C55.2839 49.7788 55.2321 49.727 55.1803 49.6494C55.1285 49.5718 55.0508 49.4942 54.9732 49.3648C54.8955 49.2355 54.766 49.0543 54.5848 48.7956C54.3776 48.4851 54.1963 48.2264 54.041 47.9935C53.8856 47.7607 53.7302 47.502 53.5749 47.2692C53.4195 47.0363 53.2382 46.8034 53.057 46.5447C52.8758 46.3119 52.6427 46.0272 52.3838 45.7427C52.1766 45.4839 51.9435 45.277 51.6846 45.0441C51.4256 44.8371 51.1667 44.7077 50.8819 44.6302C50.6748 44.5784 50.5193 44.5784 50.4158 44.5784C50.3122 44.5784 50.1828 44.5784 50.0533 44.5525C50.0533 45.2511 50.0533 45.8462 50.0533 46.3636C50.0533 46.8811 50.0533 47.3209 50.0792 47.6572C50.0792 47.9935 50.1051 48.3041 50.1051 48.5369C50.1051 48.7956 50.1828 48.9767 50.2864 49.1578C50.364 49.2872 50.5453 49.4424 50.7783 49.5977C51.0372 49.7529 51.3739 49.8305 51.814 49.8564V50.0116H46.6612V49.8564C46.9201 49.8046 47.1791 49.7529 47.438 49.6752C47.697 49.5977 47.8782 49.4683 48.0077 49.2872C48.0594 49.2355 48.1112 49.132 48.1371 49.0026C48.163 48.8732 48.1889 48.718 48.2148 48.5628C48.2407 48.4075 48.2407 48.2264 48.2666 48.0453C48.2666 47.8642 48.2925 47.6831 48.2925 47.502C48.2925 47.3467 48.2925 47.1398 48.2925 46.8811C48.2925 46.6224 48.2925 46.3377 48.3184 46.0272C48.3184 45.7168 48.3184 45.4063 48.3184 45.0958C48.3184 44.7595 48.3184 44.449 48.3184 44.1645V41.0339C48.3184 40.8528 48.3184 40.6458 48.3184 40.4388C48.3184 40.2319 48.2925 40.0507 48.2925 39.8696C48.2666 39.6885 48.2407 39.5333 48.2148 39.378C48.1889 39.2228 48.1371 39.1193 48.0594 39.0676C47.9041 38.8865 47.7228 38.783 47.5157 38.7312C47.3085 38.6795 47.0755 38.6278 46.7907 38.576V38.4466C46.8683 38.4466 47.1014 38.4466 47.4639 38.4466C47.8264 38.4466 48.2407 38.4466 48.7068 38.4466C49.1729 38.4466 49.639 38.4466 50.1051 38.4466C50.5712 38.4466 50.9337 38.4466 51.2444 38.4466C51.9695 38.4466 52.6168 38.4725 53.1606 38.4984C53.7302 38.5501 54.2222 38.6795 54.6883 38.9382C55.1544 39.1969 55.5428 39.5333 55.8276 39.9473C56.1125 40.3612 56.2679 40.9045 56.2679 41.5513C56.2679 41.9394 56.1902 42.3017 56.0607 42.6121C55.9053 42.9226 55.7241 43.2072 55.491 43.44C55.258 43.6728 54.9732 43.8799 54.6365 44.0609C54.3258 44.2421 53.9633 44.3714 53.6266 44.5008V44.5525C53.8079 44.656 53.9892 44.7854 54.1705 44.9665C54.3517 45.1476 54.507 45.3545 54.6624 45.5875C54.9473 46.0014 55.258 46.4412 55.5687 46.9069C55.9053 47.3726 56.1902 47.8125 56.4491 48.1747C56.8375 48.7439 57.2259 49.132 57.6143 49.3907C58.0027 49.6494 58.4429 49.8046 58.9349 49.8823V50.0375H55.5428ZM53.9374 39.9989C53.6785 39.585 53.2642 39.2487 52.7722 38.99C52.5132 38.8606 52.2543 38.783 51.9695 38.7312C51.6846 38.6795 51.3739 38.6537 51.0632 38.6537C50.8301 38.6537 50.6488 38.6536 50.5193 38.6795C50.3899 38.6795 50.2604 38.7053 50.2086 38.7053C50.2086 38.7571 50.1828 38.8347 50.1828 38.8865C50.1828 38.9382 50.1569 38.9899 50.1569 39.0676C50.1569 39.1452 50.1569 39.2487 50.1309 39.378C50.1309 39.5074 50.1051 39.7144 50.1051 39.9473C50.1051 40.3353 50.0792 40.7493 50.0792 41.215C50.0792 41.6807 50.0792 42.1464 50.0792 42.5862C50.0792 43.026 50.0792 43.4141 50.0792 43.7505C50.0792 44.0609 50.0792 44.268 50.0792 44.3714C50.5193 44.3714 50.9337 44.3455 51.3221 44.3196C51.7105 44.2938 52.073 44.2162 52.4355 44.0868C52.7722 43.9834 53.0829 43.8281 53.3159 43.647C53.5749 43.4659 53.7561 43.2589 53.9115 43.026C54.0669 42.7932 54.1705 42.5345 54.2481 42.2758C54.3258 42.017 54.3517 41.7324 54.3517 41.4478C54.3517 40.9045 54.2222 40.4129 53.9374 39.9989Z" fill="white"/>
<path d="M68.1266 50.0375C68.0748 50.0116 68.023 49.9857 67.9712 49.9599C67.9194 49.934 67.8676 49.8564 67.7899 49.7788C67.0908 48.9768 66.4435 48.2264 65.822 47.502C65.2006 46.7776 64.5532 46.0531 63.9059 45.3287C63.621 45.0182 63.4398 44.8113 63.3362 44.7595C63.2326 44.6819 63.1549 44.656 63.0772 44.656C62.9996 44.656 62.9219 44.6819 62.896 44.7077C62.8701 44.7336 62.8442 44.8113 62.8183 44.8889C62.8183 45.4581 62.8183 45.9756 62.8183 46.493C62.8183 46.9845 62.8183 47.4244 62.8442 47.7607C62.8442 48.0712 62.8701 48.3558 62.9219 48.6403C62.9478 48.8991 63.0255 49.1061 63.1291 49.2613C63.2067 49.3648 63.3103 49.4683 63.4398 49.5459C63.5692 49.6236 63.6987 49.6752 63.8541 49.727C64.0094 49.7788 64.1648 49.8046 64.2943 49.8305C64.4497 49.8564 64.5532 49.8823 64.6827 49.8823V50.0375H59.5039V49.8823C59.7628 49.8305 60.0218 49.7788 60.2807 49.7011C60.5397 49.6236 60.7209 49.4942 60.8504 49.3389C60.9021 49.2613 60.954 49.1837 60.9798 49.0543C61.0057 48.925 61.0316 48.7697 61.0575 48.6145C61.0834 48.4593 61.0834 48.2782 61.0834 48.0712C61.0834 47.8901 61.0834 47.709 61.0834 47.5279C61.0834 47.3726 61.0834 47.1657 61.0834 46.9069C61.0834 46.6482 61.0834 46.3636 61.0834 46.079C61.0834 45.7685 61.0834 45.4581 61.0834 45.1217C61.0834 44.7854 61.0834 44.4749 61.0834 44.1903V41.0597C61.0834 40.6458 61.0576 40.2836 61.0316 39.9214C61.0057 39.585 60.9281 39.3263 60.8245 39.1711C60.6691 38.9899 60.4878 38.8606 60.2807 38.7571C60.0735 38.6795 59.8146 38.6019 59.5298 38.576V38.4466H64.5273V38.6019C64.3202 38.6278 64.113 38.6536 63.9318 38.6795C63.7505 38.7053 63.5692 38.8088 63.4139 38.9124C63.2585 39.0417 63.129 39.2228 63.0255 39.4815C62.9219 39.7402 62.8701 40.0766 62.8442 40.5164C62.8442 40.7751 62.8183 41.008 62.8183 41.215C62.8183 41.422 62.8183 41.6807 62.8183 41.9653C62.8183 42.2499 62.8183 42.5863 62.8183 42.9743C62.8183 43.3624 62.8183 43.854 62.8183 44.449C62.9996 44.3196 63.2844 44.1386 63.5951 43.854C63.9318 43.5694 64.2684 43.2589 64.6309 42.8967C64.9934 42.5345 65.3559 42.1723 65.6925 41.8101C66.0551 41.422 66.3658 41.1115 66.6247 40.8269C66.806 40.62 66.9613 40.387 67.1167 40.1542C67.272 39.9214 67.3239 39.7144 67.3239 39.5333C67.3239 39.2228 67.2203 38.99 67.0131 38.8606C66.806 38.7312 66.5471 38.6278 66.2622 38.576V38.4466H70.5865V38.6019C70.0427 38.6537 69.473 38.8865 68.9293 39.3005C68.3596 39.7144 67.7899 40.1801 67.2203 40.7234C66.9872 40.9304 66.7542 41.1374 66.5212 41.3961C66.2881 41.629 66.0551 41.8618 65.822 42.0946C65.5889 42.3275 65.3559 42.5604 65.1488 42.7673C64.9416 43.0002 64.7345 43.2072 64.5532 43.3883C64.6309 43.4918 64.8381 43.7246 65.1488 44.0868C65.4595 44.449 65.822 44.863 66.2622 45.3546C66.7024 45.8462 67.1426 46.3636 67.6346 46.9069C68.1266 47.4502 68.5927 47.9935 69.0587 48.4851C69.1623 48.6145 69.2918 48.7439 69.4213 48.8732C69.5507 49.0026 69.7061 49.1061 69.8356 49.2096C69.965 49.3131 70.0686 49.3907 70.1722 49.4683C70.2758 49.5459 70.3276 49.5977 70.3534 49.5977C70.4829 49.6494 70.6901 49.7011 70.9232 49.7529C71.1561 49.8046 71.441 49.8564 71.7259 49.8564V50.0116H68.1266V50.0375Z" fill="white"/>
<path d="M82.1614 50.0375H72.296V49.8823C72.5549 49.8305 72.8138 49.7788 73.0469 49.6752C73.28 49.5718 73.4612 49.4424 73.6165 49.2613C73.6684 49.2096 73.7201 49.1061 73.746 48.9767C73.7719 48.8474 73.7978 48.718 73.8237 48.5369C73.8496 48.3816 73.8755 48.2006 73.8755 48.0194C73.8755 47.8383 73.9014 47.6572 73.9014 47.502C73.9014 47.3467 73.9014 47.1398 73.9014 46.8811C73.9014 46.6224 73.9014 46.3377 73.9273 46.0272C73.9273 45.7168 73.9273 45.4063 73.9273 45.0958C73.9273 44.7595 73.9273 44.449 73.9273 44.1645V41.0339C73.9273 40.8528 73.9273 40.6458 73.9273 40.4388C73.9273 40.2319 73.9014 40.0507 73.9014 39.8696C73.8755 39.6885 73.8496 39.5333 73.8237 39.378C73.7978 39.2228 73.746 39.1193 73.6684 39.0676C73.513 38.8865 73.3317 38.783 73.1505 38.7312C72.9692 38.6795 72.7361 38.6278 72.4513 38.6019V38.4466H81.3586L82.4466 41.1115L82.2912 41.1891C81.4107 40.1025 80.6079 39.378 79.8308 38.99C79.6497 38.9124 79.3132 38.8347 78.8213 38.7571C78.3294 38.7053 77.7333 38.6537 77.0086 38.6537C76.7756 38.6537 76.5426 38.6536 76.3095 38.6795C76.0765 38.7053 75.8952 38.7053 75.7917 38.7312C75.7658 38.9124 75.7398 39.2487 75.7398 39.792C75.7139 40.3353 75.7139 40.9563 75.7139 41.6548C75.7139 42.0688 75.7139 42.4051 75.7139 42.6897C75.7139 42.9744 75.7139 43.2072 75.7139 43.3624C75.7139 43.5435 75.7139 43.6728 75.7139 43.7764C75.7139 43.854 75.7139 43.9316 75.7139 43.9575C75.7658 43.9575 75.8693 43.9575 76.0247 43.9575C76.1801 43.9575 76.3613 43.9575 76.5944 43.9316C76.8015 43.9316 77.0086 43.9057 77.2158 43.8799C77.4229 43.854 77.6042 43.8281 77.7333 43.8022C78.0442 43.7246 78.3294 43.6212 78.5361 43.4918C78.7436 43.3624 78.9247 43.2072 79.0544 43.026C79.1834 42.845 79.2876 42.638 79.3653 42.3792C79.443 42.1464 79.5207 41.8618 79.572 41.5772H79.7531V46.6482H79.572C79.4943 46.3118 79.3653 45.9497 79.1834 45.5875C79.0024 45.2252 78.8213 44.9406 78.6402 44.7595C78.4584 44.6043 78.2517 44.4749 78.0185 44.3973C77.7854 44.2938 77.5007 44.2421 77.164 44.2162C77.0086 44.2162 76.8792 44.1903 76.7497 44.1903C76.6461 44.1903 76.5426 44.1903 76.439 44.1903C76.3354 44.1903 76.2318 44.1903 76.1282 44.1903C76.0247 44.1903 75.8693 44.1903 75.7139 44.1903C75.6881 44.3455 75.6881 44.5526 75.6881 44.863C75.6881 45.1476 75.6881 45.4581 75.6881 45.7685C75.6881 45.8979 75.6881 46.079 75.6881 46.2601C75.6881 46.4412 75.6881 46.6224 75.6881 46.8034C75.6881 46.9845 75.6881 47.1398 75.6881 47.295C75.6881 47.4502 75.6881 47.5796 75.6881 47.6831C75.6881 48.0194 75.7139 48.3558 75.7398 48.6662C75.7658 48.9768 75.8175 49.2096 75.9211 49.3389C76.0247 49.4942 76.2577 49.5977 76.6202 49.6494C76.9828 49.727 77.3712 49.7529 77.811 49.7529C77.9929 49.7529 78.226 49.7529 78.5105 49.727C78.7957 49.727 79.1057 49.7011 79.4166 49.6494C79.7531 49.5977 80.0904 49.5201 80.3748 49.3907C80.66 49.2613 80.9444 49.0802 81.2032 48.8732C81.4628 48.6404 81.7216 48.3816 81.9803 48.0453C82.2391 47.7089 82.4979 47.3209 82.7575 46.8552L82.9386 46.9069L82.1614 50.0375Z" fill="white"/>
<path d="M95.5492 41.4737C95.4715 41.2925 95.3681 41.0856 95.2383 40.8786C95.1093 40.6716 95.0052 40.4646 94.8762 40.2835C94.7464 40.1024 94.6431 39.9213 94.5133 39.7661C94.3843 39.6108 94.2801 39.5074 94.2032 39.4297C93.9701 39.2228 93.7369 39.0675 93.4781 38.9899C93.2186 38.9123 92.8821 38.8864 92.4679 38.8606C92.2612 38.8606 92.0793 38.8606 91.9239 38.8606C91.7685 38.8606 91.6138 38.8606 91.484 38.8606C91.3542 38.8606 91.1988 38.8606 91.0177 38.8606C90.8623 38.8606 90.6556 38.8606 90.4225 38.8606C90.4225 39.1193 90.4225 39.5074 90.4225 39.9471C90.4225 40.4129 90.4225 40.9045 90.4225 41.396C90.4225 41.9134 90.4225 42.4051 90.4225 42.8967C90.4225 43.3882 90.4225 43.7763 90.4225 44.1126V47.683C90.4225 47.9935 90.4225 48.3039 90.4481 48.5885C90.4737 48.8732 90.5258 49.0801 90.6035 49.1837C90.759 49.4165 90.9921 49.5718 91.2765 49.6752C91.5617 49.7528 91.8462 49.8305 92.0793 49.8563V50.0115H86.8492V49.8563C87.1336 49.8305 87.3924 49.7787 87.652 49.7011C87.9108 49.6234 88.1695 49.4424 88.4027 49.1578C88.454 49.106 88.506 49.0025 88.5317 48.8991C88.5581 48.7697 88.5838 48.6403 88.6094 48.4851C88.6358 48.3298 88.6358 48.1488 88.6358 47.9676C88.6358 47.7865 88.6358 47.6054 88.6358 47.4243C88.6358 47.269 88.6358 47.088 88.6358 46.8293C88.6358 46.5706 88.6358 46.3118 88.6615 46.0013C88.6615 45.6908 88.6615 45.3804 88.6615 45.0699C88.6615 44.7595 88.6615 44.449 88.6615 44.1385V38.8088C88.4283 38.8088 88.2473 38.8088 88.0662 38.8088C87.9108 38.8088 87.7553 38.8088 87.5999 38.8088C87.4701 38.8088 87.3147 38.8088 87.1593 38.8088C87.0046 38.8088 86.8228 38.8088 86.6161 38.8088C86.2019 38.8088 85.8646 38.8606 85.6058 38.964C85.347 39.0416 85.0882 39.1969 84.8807 39.4038C84.803 39.4815 84.6997 39.585 84.5699 39.7402C84.4665 39.8955 84.3375 40.0507 84.2077 40.2318C84.078 40.4129 83.9746 40.594 83.8456 40.801C83.7415 41.0079 83.6381 41.215 83.586 41.396L83.4306 41.3443L83.9233 38.2913C84.1821 38.3431 84.3888 38.3948 84.5963 38.4207C84.803 38.4466 85.1139 38.4725 85.5024 38.4983C85.9166 38.4983 86.2796 38.5242 86.5896 38.5242C86.9005 38.5242 87.2113 38.5242 87.5222 38.5242C87.8331 38.5242 88.1175 38.5242 88.4283 38.5242C88.7392 38.5242 89.1013 38.5242 89.5163 38.5242C89.9041 38.5242 90.267 38.5242 90.5779 38.5242C90.8887 38.5242 91.2252 38.5242 91.5097 38.5242C91.8205 38.5242 92.1314 38.5242 92.4422 38.4983C92.7531 38.4983 93.1409 38.4983 93.5294 38.4983C93.8924 38.4983 94.1768 38.4466 94.4099 38.4207C94.6431 38.3689 94.8762 38.3172 95.135 38.2396L95.6526 41.3701L95.5492 41.4737Z" fill="white"/>
<path d="M104.664 48.2522C104.457 48.6662 104.172 49.0025 103.783 49.2871C103.421 49.5718 102.98 49.8046 102.463 49.9339C101.945 50.0633 101.375 50.1409 100.779 50.1409C100.262 50.1409 99.7956 50.1151 99.4326 50.0374C99.0448 49.9857 98.734 49.908 98.5009 49.8046C98.2421 49.7011 98.061 49.6234 97.9312 49.5459C97.8014 49.4682 97.7237 49.4424 97.6981 49.4424C97.6724 49.4424 97.5947 49.4941 97.4906 49.6234C97.3872 49.7528 97.2839 49.8822 97.2062 49.9857H97.0507L96.9987 46.7775H97.1541C97.2582 47.0621 97.3872 47.3467 97.517 47.6313C97.6724 47.9158 97.8279 48.1746 98.0089 48.4075C98.19 48.6403 98.3711 48.8732 98.5786 49.0543C98.7853 49.2354 98.9671 49.3647 99.1482 49.4682C99.3293 49.5718 99.5624 49.6493 99.8733 49.7528C100.184 49.8564 100.469 49.9081 100.754 49.9081C101.557 49.9081 102.204 49.7011 102.696 49.2612C103.188 48.8214 103.447 48.2264 103.447 47.5019C103.447 47.1915 103.394 46.9327 103.291 46.6999C103.188 46.467 103.058 46.2859 102.903 46.1048C102.747 45.9496 102.54 45.7944 102.307 45.665C102.074 45.5356 101.841 45.4321 101.582 45.3545C101.323 45.251 101.09 45.1734 100.909 45.1217C100.727 45.044 100.546 44.9923 100.365 44.9405C100.21 44.8888 100.029 44.8112 99.8476 44.7594C99.6658 44.7077 99.4591 44.6301 99.2003 44.5266C98.9151 44.4231 98.6563 44.2678 98.3975 44.0868C98.1379 43.9057 97.9056 43.6728 97.7237 43.4141C97.5426 43.1554 97.3616 42.8708 97.2582 42.5861C97.1284 42.2757 97.0764 41.9652 97.0764 41.603C97.0764 41.0338 97.1805 40.5164 97.3872 40.1024C97.5947 39.6884 97.8791 39.3262 98.2421 39.0675C98.6042 38.7829 99.0184 38.576 99.4847 38.4466C99.951 38.3172 100.443 38.2396 100.96 38.2396C101.452 38.2396 101.867 38.2913 102.204 38.3689C102.54 38.4466 102.825 38.5501 103.058 38.6276C103.265 38.7312 103.447 38.8088 103.55 38.8864C103.654 38.964 103.732 39.0157 103.732 39.0157C103.757 39.0157 103.835 38.9381 103.938 38.8347C104.042 38.7053 104.146 38.576 104.224 38.4466H104.405V41.4219H104.224C104.094 41.0597 103.938 40.7233 103.732 40.3611C103.524 39.9989 103.291 39.6884 103.032 39.4297C102.774 39.1451 102.463 38.9381 102.1 38.757C101.763 38.576 101.375 38.4983 100.96 38.4983C100.624 38.4983 100.313 38.5501 100.029 38.6535C99.7435 38.757 99.4847 38.8864 99.2516 39.0934C99.0448 39.2745 98.863 39.5332 98.734 39.8178C98.6042 40.1024 98.5529 40.4388 98.5529 40.801C98.5529 41.3701 98.734 41.8359 99.0705 42.1722C99.407 42.5086 99.8476 42.7931 100.417 43.0001C100.624 43.0777 100.831 43.1554 101.013 43.233C101.194 43.3106 101.375 43.3623 101.557 43.4141C101.738 43.4658 101.919 43.5435 102.1 43.5952C102.282 43.6469 102.488 43.7245 102.696 43.8022C103.421 44.0609 103.991 44.449 104.405 44.9664C104.819 45.4839 105 46.1048 105 46.881C104.974 47.3984 104.871 47.8383 104.664 48.2522Z" fill="white"/>
<path d="M27.3698 55.9364C27.1109 56.4021 26.8519 56.8936 26.6189 57.3594V59.3516H25.8162V57.3594C25.5572 56.8678 25.2983 56.4021 25.0652 55.9364C24.8063 55.4706 24.5732 54.9791 24.3143 54.5134H25.2206L25.8162 55.7035C25.8938 55.8587 25.9715 56.014 26.0233 56.1692C26.101 56.3245 26.1527 56.4797 26.2304 56.6349H26.2563L26.6965 55.6777L27.2662 54.4875H28.1725C27.8877 55.005 27.6287 55.4706 27.3698 55.9364Z" fill="#EF7D00"/>
<path d="M29.6232 55.8846C29.8821 55.8846 30.1152 55.9364 30.3223 56.0398C30.5295 56.1434 30.6849 56.2727 30.8144 56.4797C30.892 56.6091 30.9697 56.7902 31.0215 56.9713C31.0733 57.1524 31.0733 57.3852 31.0733 57.6181C31.0733 57.8768 31.0473 58.1096 31.0215 58.2908C30.9697 58.4719 30.9179 58.6529 30.8402 58.7823C30.7108 58.9893 30.5295 59.1704 30.2965 59.2739C30.0634 59.3774 29.8045 59.4291 29.5455 59.4291C29.2866 59.4291 29.0535 59.3774 28.8463 59.2998C28.6392 59.2222 28.4839 59.0669 28.3544 58.8858C28.1731 58.6013 28.0695 58.1873 28.0695 57.644C28.0695 57.4628 28.0695 57.2818 28.0955 57.1006C28.1214 56.9454 28.1731 56.7902 28.2249 56.6608C28.3544 56.4021 28.5356 56.221 28.7687 56.0657C29.0276 55.9364 29.3125 55.8846 29.6232 55.8846ZM29.5973 56.5832C29.4678 56.5832 29.3383 56.6091 29.2348 56.6866C29.1312 56.7643 29.0535 56.8419 29.0018 56.9713C28.9499 57.0747 28.9241 57.1783 28.9241 57.2818C28.8982 57.3852 28.8982 57.5146 28.8982 57.644C28.8982 57.7733 28.8982 57.9027 28.9241 58.0061C28.9499 58.1096 28.9758 58.2132 29.0018 58.2908C29.0535 58.4201 29.1312 58.4978 29.2348 58.5754C29.3383 58.6529 29.4678 58.6788 29.5973 58.6788C29.7526 58.6788 29.8821 58.6271 29.9857 58.5495C30.1152 58.4719 30.1929 58.3425 30.2446 58.1873C30.2705 58.1096 30.2965 58.032 30.2965 57.9545C30.2965 57.8509 30.3223 57.7216 30.3223 57.5922C30.3223 57.3335 30.2965 57.1265 30.2188 56.9971C30.167 56.8678 30.0893 56.7643 29.9857 56.6866C29.8303 56.635 29.7268 56.5832 29.5973 56.5832Z" fill="#EF7D00"/>
<path d="M32.6255 55.9104V57.9544C32.6255 58.1872 32.6773 58.3683 32.7809 58.4718C32.8844 58.5753 33.0398 58.6529 33.2728 58.6529C33.4541 58.6529 33.6095 58.6012 33.7389 58.4718C33.8684 58.3424 33.9202 58.1872 33.9202 57.9544V55.9104H34.697V59.3773H33.9202V59.0409H33.8943C33.7907 59.1703 33.6612 59.2739 33.48 59.3256C33.3246 59.3773 33.1693 59.429 33.0139 59.429C32.6514 59.429 32.3665 59.3256 32.1594 59.1186C31.9522 58.9116 31.8228 58.6012 31.8228 58.1872V55.9104H32.6255Z" fill="#EF7D00"/>
<path d="M37.0539 56.6349C36.8726 56.6349 36.7173 56.6866 36.5878 56.8159C36.4583 56.9453 36.4066 57.1005 36.4066 57.3334V59.4032H35.6298V55.9363H36.4066V56.3503H36.4325C36.6396 56.0397 36.9245 55.9104 37.261 55.9104C37.3905 55.9104 37.52 55.9363 37.6236 55.9622C37.7272 55.9881 37.8307 56.0397 37.9343 56.0915L37.6495 56.8159C37.5459 56.7642 37.4682 56.7124 37.3646 56.6865C37.2352 56.6349 37.1574 56.6349 37.0539 56.6349Z" fill="#EF7D00"/>
<path d="M41.5594 55.8846C41.8183 55.8846 42.0514 55.9364 42.2586 56.0398C42.4657 56.1434 42.621 56.2727 42.7505 56.4797C42.8282 56.6091 42.9059 56.7902 42.9577 56.9713C43.0094 57.1524 43.0094 57.3852 43.0094 57.6181C43.0094 57.8768 42.9836 58.1096 42.9577 58.2908C42.9059 58.4719 42.8541 58.6529 42.7764 58.7823C42.647 58.9893 42.4657 59.1704 42.2326 59.2739C41.9996 59.3774 41.7407 59.4291 41.4817 59.4291C41.2228 59.4291 40.9897 59.3774 40.7826 59.2998C40.5755 59.2222 40.42 59.0669 40.2906 58.8858C40.1093 58.6013 40.0057 58.1873 40.0057 57.644C40.0057 57.4628 40.0057 57.2818 40.0316 57.1006C40.0576 56.9454 40.1093 56.7902 40.1611 56.6608C40.2906 56.4021 40.4719 56.221 40.7049 56.0657C40.9639 55.9364 41.2487 55.8846 41.5594 55.8846ZM41.5335 56.5832C41.404 56.5832 41.2746 56.6091 41.171 56.6866C41.0674 56.7643 40.9897 56.8419 40.9379 56.9713C40.8862 57.0747 40.8603 57.1783 40.8603 57.2818C40.8344 57.3852 40.8344 57.5146 40.8344 57.644C40.8344 57.7733 40.8344 57.9027 40.8603 58.0061C40.8861 58.1096 40.912 58.2132 40.9379 58.2908C40.9897 58.4201 41.0674 58.4978 41.171 58.5754C41.2746 58.6529 41.404 58.6788 41.5335 58.6788C41.6889 58.6788 41.8183 58.6271 41.9219 58.5495C42.0514 58.4719 42.1291 58.3425 42.1809 58.1873C42.2067 58.1096 42.2326 58.032 42.2326 57.9545C42.2326 57.8509 42.2586 57.7216 42.2586 57.5922C42.2586 57.3335 42.2326 57.1265 42.155 56.9971C42.1031 56.8678 42.0255 56.7643 41.9219 56.6866C41.7924 56.635 41.663 56.5832 41.5335 56.5832Z" fill="#EF7D00"/>
<path d="M45.8583 59.3774V57.3335C45.8583 57.1006 45.8066 56.9454 45.703 56.816C45.5994 56.6866 45.444 56.6349 45.211 56.6349C45.0297 56.6349 44.8485 56.6866 44.7449 56.816C44.6154 56.9454 44.5636 57.1006 44.5636 57.3335V59.3774H43.7869V55.9105H44.5636V56.2727H44.5896C44.6932 56.1433 44.8485 56.0398 45.0039 55.9881C45.1592 55.9105 45.3404 55.8846 45.4959 55.8846C45.8583 55.8846 46.1432 55.9881 46.3503 56.1951C46.5575 56.4021 46.6611 56.7125 46.6611 57.1006V59.3774H45.8583Z" fill="#EF7D00"/>
<path d="M48.4996 59.3773C48.3701 59.3773 48.2407 59.3515 48.1112 59.3257C48.0077 59.2998 47.9041 59.248 47.8005 59.1704C47.7228 59.0928 47.6452 59.0151 47.5933 58.8858C47.5416 58.7564 47.5157 58.6271 47.5157 58.4459V54.2805H48.3184V58.3166C48.3184 58.4459 48.3443 58.5236 48.3961 58.5753C48.4479 58.6271 48.5256 58.653 48.655 58.653H48.7845V59.3515H48.4996V59.3773Z" fill="#EF7D00"/>
<path d="M49.4313 55.2376V54.5132H50.2081V55.2376H49.4313ZM49.4313 59.3773V55.9103H50.2081V59.3773H49.4313Z" fill="#EF7D00"/>
<path d="M53.2381 59.3774V57.3335C53.2381 57.1006 53.1863 56.9454 53.0827 56.816C52.9792 56.6866 52.8237 56.6349 52.5908 56.6349C52.4094 56.6349 52.2541 56.6866 52.1246 56.816C51.9952 56.9454 51.9434 57.1006 51.9434 57.3335V59.3774H51.1406V55.9105H51.9434V56.2727H51.9693C52.0729 56.1433 52.2282 56.0398 52.3836 55.9881C52.5389 55.9105 52.7202 55.8846 52.8756 55.8846C53.2381 55.8846 53.5229 55.9881 53.73 56.1951C53.9372 56.4021 54.0408 56.7125 54.0408 57.1006V59.3774H53.2381Z" fill="#EF7D00"/>
<path d="M55.5417 57.8768C55.5417 57.9803 55.5675 58.0838 55.5935 58.1873C55.6194 58.2908 55.6711 58.3684 55.723 58.446C55.7747 58.5236 55.8524 58.5754 55.9559 58.6271C56.0595 58.6789 56.1631 58.7048 56.2926 58.7048C56.3962 58.7048 56.5257 58.6789 56.681 58.6271C56.8364 58.5754 56.9917 58.4977 57.1212 58.3684C57.1989 58.4719 57.2766 58.5495 57.3542 58.653C57.432 58.7565 57.5096 58.8341 57.5873 58.9376C57.3801 59.1187 57.173 59.2481 56.9399 59.3257C56.7069 59.4033 56.4998 59.4291 56.2667 59.4291C56.0854 59.4291 55.9042 59.4033 55.723 59.3516C55.5416 59.2998 55.3863 59.1963 55.231 59.067C55.0756 58.9376 54.972 58.7565 54.8684 58.5236C54.7648 58.2908 54.739 58.0062 54.739 57.644C54.739 57.3076 54.7907 57.0231 54.8684 56.7902C54.972 56.5573 55.0756 56.3763 55.231 56.2469C55.3863 56.1175 55.5416 56.014 55.723 55.9364C55.9042 55.8846 56.0854 55.8329 56.2667 55.8329C56.4998 55.8329 56.7069 55.8846 56.8882 55.9623C57.0694 56.0399 57.2248 56.1433 57.3542 56.2986C57.4837 56.4538 57.5873 56.6091 57.6391 56.816C57.7168 57.0231 57.7426 57.2559 57.7426 57.4887V57.8251H55.5417V57.8768ZM56.2149 56.6091C56.0337 56.6091 55.8783 56.6608 55.7488 56.7902C55.6194 56.9195 55.5675 57.1006 55.5417 57.3335H56.8622C56.8364 57.1006 56.7846 56.9195 56.6551 56.7902C56.5515 56.6608 56.3962 56.6091 56.2149 56.6091Z" fill="#EF7D00"/>
<path d="M63.1553 57.5922C63.1553 57.7992 63.1294 58.0062 63.1035 58.2132C63.0776 58.4201 63.0258 58.6271 62.9222 58.8082C62.8446 58.9893 62.7151 59.1187 62.5338 59.248C62.3785 59.3515 62.1454 59.4292 61.8865 59.4292C61.7311 59.4292 61.5758 59.4033 61.4204 59.3515C61.2651 59.2998 61.1356 59.1963 61.032 59.067H61.0061V59.4033H60.2033V54.3323H61.0061V56.2727H61.032C61.1615 56.1434 61.2909 56.0657 61.4463 55.9881C61.6016 55.9364 61.757 55.9105 61.8865 55.9105C62.1454 55.9105 62.3526 55.9622 62.5079 56.0657C62.6633 56.1693 62.7927 56.2986 62.8963 56.4797C62.974 56.6349 63.0517 56.8161 63.0776 57.023C63.1294 57.1783 63.1553 57.3852 63.1553 57.5922ZM62.3267 57.6439C62.3267 57.5146 62.3267 57.4111 62.3008 57.2817C62.3008 57.1524 62.249 57.0489 62.2231 56.9454C62.1714 56.8419 62.1195 56.7643 62.0159 56.7126C61.9383 56.6608 61.8088 56.609 61.6535 56.609C61.498 56.609 61.3945 56.6349 61.3168 56.7126C61.2392 56.7902 61.1615 56.8678 61.1096 56.9713C61.0579 57.0748 61.032 57.1783 61.032 57.3076C61.0061 57.437 61.0061 57.5405 61.0061 57.6439C61.0061 57.7475 61.0061 57.8769 61.032 57.9803C61.032 58.1097 61.0838 58.2131 61.1096 58.3166C61.1615 58.4201 61.2132 58.4978 61.3168 58.5753C61.3945 58.653 61.524 58.6788 61.6793 58.6788C61.8347 58.6788 61.9383 58.653 62.0419 58.5753C62.1195 58.4978 62.1972 58.4201 62.249 58.3166C62.3008 58.2131 62.3267 58.1097 62.3267 57.9803C62.3267 57.8769 62.3267 57.7475 62.3267 57.6439Z" fill="#EF7D00"/>
<path d="M65.3569 56.6349C65.1756 56.6349 65.0203 56.6866 64.8908 56.8159C64.7613 56.9453 64.7096 57.1005 64.7096 57.3334V59.4032H63.9327V55.9363H64.7096V56.3503H64.7354C64.9426 56.0397 65.2274 55.9104 65.564 55.9104C65.6935 55.9104 65.823 55.9363 65.9265 55.9622C66.0301 55.9881 66.1337 56.0397 66.2373 56.0915L65.9524 56.8159C65.8489 56.7642 65.7712 56.7124 65.6676 56.6865C65.5381 56.6349 65.4605 56.6349 65.3569 56.6349Z" fill="#EF7D00"/>
<path d="M67.9195 55.8846C68.1784 55.8846 68.4115 55.9364 68.6186 56.0398C68.8257 56.1434 68.9811 56.2727 69.1106 56.4797C69.1883 56.6091 69.266 56.7902 69.3177 56.9713C69.3696 57.1524 69.3695 57.3852 69.3695 57.6181C69.3695 57.8768 69.3436 58.1096 69.3177 58.2908C69.266 58.4719 69.2142 58.6529 69.1365 58.7823C69.0071 58.9893 68.8257 59.1704 68.5927 59.2739C68.3597 59.3774 68.1008 59.4291 67.8418 59.4291C67.5829 59.4291 67.3498 59.3774 67.1426 59.2998C66.9355 59.2222 66.7802 59.0669 66.6507 58.8858C66.4694 58.6013 66.3658 58.1873 66.3658 57.644C66.3658 57.4628 66.3658 57.2818 66.3918 57.1006C66.4177 56.9454 66.4694 56.7902 66.5212 56.6608C66.6507 56.4021 66.8319 56.221 67.065 56.0657C67.3239 55.9364 67.6088 55.8846 67.9195 55.8846ZM67.8936 56.5832C67.7641 56.5832 67.6346 56.6091 67.531 56.6866C67.4275 56.7643 67.3498 56.8419 67.2721 56.9713C67.2203 57.0747 67.1945 57.1783 67.1945 57.2818C67.1686 57.3852 67.1686 57.5146 67.1686 57.644C67.1686 57.7733 67.1686 57.9027 67.1945 58.0061C67.2203 58.1096 67.2462 58.2132 67.2721 58.2908C67.3239 58.4201 67.4016 58.4978 67.5052 58.5754C67.6088 58.6529 67.7382 58.6788 67.8677 58.6788C68.023 58.6788 68.1525 58.6271 68.2561 58.5495C68.3856 58.4719 68.4633 58.3425 68.5151 58.1873C68.5409 58.1096 68.5668 58.032 68.5668 57.9545C68.5668 57.8509 68.5927 57.7216 68.5927 57.5922C68.5927 57.3335 68.5668 57.1265 68.4892 56.9971C68.4373 56.8678 68.3597 56.7643 68.2561 56.6866C68.1525 56.635 68.0231 56.5832 67.8936 56.5832Z" fill="#EF7D00"/>
<path d="M72.4515 59.3773C72.2702 59.1186 72.1149 58.8599 71.9336 58.6012C71.7782 58.3424 71.597 58.0837 71.4158 57.825C71.3381 57.9027 71.2603 58.0061 71.1827 58.0837C71.105 58.1614 71.0273 58.2649 70.9496 58.3424V59.3515H70.1469V54.2805H70.9496V57.3335H70.9755L71.6487 56.5573L72.2443 55.9105H73.2024L71.9595 57.2558C72.1925 57.6181 72.4256 57.9544 72.6586 58.3166C72.8917 58.6788 73.1248 59.0151 73.3577 59.3773H72.4515Z" fill="#EF7D00"/>
<path d="M74.3932 57.8768C74.3932 57.9803 74.4191 58.0838 74.4451 58.1873C74.4709 58.2908 74.5227 58.3684 74.5745 58.446C74.6263 58.5236 74.704 58.5754 74.8075 58.6271C74.9111 58.6789 75.0147 58.7048 75.1442 58.7048C75.2478 58.7048 75.3772 58.6789 75.5326 58.6271C75.6879 58.5754 75.8433 58.4977 75.9727 58.3684C76.0504 58.4719 76.1282 58.5495 76.2058 58.653C76.2835 58.7565 76.3611 58.8341 76.4389 58.9376C76.2317 59.1187 76.0246 59.2481 75.7915 59.3257C75.5584 59.4033 75.3513 59.4291 75.1183 59.4291C74.937 59.4291 74.7558 59.4033 74.5745 59.3516C74.3932 59.2998 74.2379 59.1963 74.0825 59.067C73.9272 58.9376 73.8236 58.7565 73.72 58.5236C73.6424 58.2908 73.5905 58.0062 73.5905 57.644C73.5905 57.3076 73.6424 57.0231 73.72 56.7902C73.8236 56.5573 73.9272 56.3763 74.0825 56.2469C74.2379 56.1175 74.3932 56.014 74.5745 55.9364C74.7558 55.8846 74.937 55.8329 75.1183 55.8329C75.3513 55.8329 75.5584 55.8846 75.7398 55.9623C75.921 56.0399 76.0763 56.1433 76.2058 56.2986C76.3353 56.4538 76.4389 56.6091 76.4906 56.816C76.5683 57.0231 76.5942 57.2559 76.5942 57.4887V57.8251H74.3932V57.8768ZM75.0664 56.6091C74.8852 56.6091 74.7299 56.6608 74.6004 56.7902C74.4709 56.9195 74.4192 57.1006 74.3932 57.3335H75.7138C75.6879 57.1006 75.6362 56.9195 75.5067 56.7902C75.4031 56.6608 75.2477 56.6091 75.0664 56.6091Z" fill="#EF7D00"/>
<path d="M78.7957 56.6349C78.6146 56.6349 78.4592 56.6866 78.3294 56.8159C78.2004 56.9453 78.1483 57.1005 78.1483 57.3334V59.4032H77.3458V55.9363H78.1227V56.3503H78.1483C78.3558 56.0397 78.6403 55.9104 78.9768 55.9104C79.1065 55.9104 79.2363 55.9363 79.3397 55.9622C79.443 55.9881 79.5472 56.0397 79.6505 56.0915L79.3653 56.8159C79.262 56.7642 79.1843 56.7124 79.0809 56.6865C78.9768 56.6349 78.8734 56.6349 78.7957 56.6349Z" fill="#EF7D00"/>
<path d="M16.7281 45.3804C16.7281 46.1048 16.1325 46.6999 15.4075 46.6999C14.6824 46.6999 14.0869 46.1048 14.0869 45.3804C14.0869 44.6559 14.6824 44.0609 15.4075 44.0609C16.1325 44.0868 16.7281 44.6559 16.7281 45.3804Z" fill="white"/>
<defs>
<linearGradient id="paint0_linear" x1="52.6647" y1="0.286175" x2="52.6647" y2="35.6024" gradientUnits="userSpaceOnUse">
<stop stop-color="#F39200"/>
<stop offset="1" stop-color="#F07E00"/>
</linearGradient>
</defs>
</svg>
